<svg width="49" height="44" viewBox="0 0 49 44" fill="none" xmlns="http://www.w3.org/2000/svg">
<path d="M34.0432 0.0109727C35.3519 0.166101 36.1156 1.63302 35.472 2.71279C32.3355 5.87387 29.026 8.90431 25.7844 11.9783C24.217 13.4642 22.6516 14.9632 21.0783 16.4485C18.3758 18.9999 16.3489 21.7283 12.1349 21.9447C3.34966 22.3957 -0.834532 12.0389 5.96338 6.90534C10.0559 3.81502 15.5883 4.78185 18.8605 8.42741C20.501 10.2549 18.032 12.5464 16.1058 11.0189C15.4921 10.5318 15.0551 9.92148 14.3541 9.49221C11.24 7.58845 7.01857 9.3636 6.52192 12.8193C5.87315 17.3364 11.4817 20.0613 15.0417 17.0343L32.466 0.469554C32.7487 0.246387 33.1408 0.051796 33.5107 0.0109727C33.6375 -0.00331541 33.9179 -0.00399579 34.0432 0.0109727Z" fill="#111111"/>
<path d="M38.3396 5.03646C41.7632 4.79968 44.415 6.9395 45.6506 9.78759C48.5201 16.4023 42.5716 23.1817 35.1435 21.7625C32.4977 21.2569 31.1547 19.992 29.3121 18.3095C28.705 17.7556 26.6708 16.0009 26.3732 15.4348C25.4433 13.6665 27.7043 11.9771 29.3359 13.1903C30.7088 14.3625 31.9758 15.7798 33.3524 16.931C37.3702 20.2915 43.4858 17.0623 42.3665 12.0839C41.9459 10.2121 40.2166 8.03901 37.9176 8.81804C36.4925 9.30042 35.2979 11.609 33.925 11.745C32.4016 11.8961 31.2904 10.5973 31.8445 9.24399C32.054 8.73097 33.8721 7.06878 34.3963 6.63197C35.4888 5.72093 36.8728 5.13784 38.3396 5.03646Z" fill="#111111"/>
<path d="M46.1632 33.8073V32.1152C46.1632 32.0901 46.0438 31.8356 46.011 31.7988C45.788 31.5498 45.1497 31.5498 44.8529 31.6335C44.662 32.0982 43.9461 35.4729 43.7478 35.6063C43.6985 35.6396 43.6695 35.6403 43.6135 35.6471C43.2817 35.6873 41.9782 35.6913 41.6605 35.6423C41.5345 35.6233 41.395 35.5171 41.4234 35.3838L42.5926 31.8036L42.6128 31.5926H41.6583C41.6091 31.5926 41.5158 31.4219 41.5054 31.3607C41.4629 31.1069 41.4689 30.2496 41.5017 29.9835C41.5211 29.8291 41.5934 29.7263 41.7559 29.6801C43.19 29.7297 44.7179 29.5828 46.1415 29.6712C49.6136 29.8876 48.4428 33.0902 48.6523 35.3334L48.5173 35.624H45.0542C44.9633 35.5607 44.9327 35.4763 44.92 35.3742C44.8991 35.2083 44.9007 34.0645 44.9439 33.9747C44.9544 33.9536 45.1079 33.8067 45.1206 33.8067H46.1638L46.1632 33.8073Z" fill="#111111"/>
<path d="M19.4061 29.8528C19.7446 29.5467 21.2681 29.6521 21.7119 29.8066C22.6545 30.1338 22.8513 31.0591 22.9005 31.9048C23.0638 34.7046 22.0101 35.9579 18.9259 35.7287C15.4979 35.4735 16.3949 32.243 16.2823 29.9841C16.2898 29.8235 16.4054 29.699 16.5746 29.6739C16.7573 29.6473 18.2629 29.6514 18.3688 29.6929C18.4367 29.7194 18.559 29.8603 18.5501 29.9406C18.6156 30.9543 18.4554 32.077 18.5463 33.0772C18.5701 33.3405 18.6261 33.5038 18.8722 33.6473C19.383 33.946 20.3882 33.8868 20.459 33.2031C20.4904 32.9023 20.4904 32.0035 20.3487 31.7565C20.0899 31.3054 19.3792 31.9558 19.2674 31.4789C19.2219 31.285 19.2286 30.3692 19.257 30.1501C19.2689 30.0549 19.3353 29.9168 19.4061 29.8528Z" fill="#111111"/>
<path d="M2.34277 29.671C3.58438 29.6213 4.85135 29.756 5.38304 30.9672C6.23241 32.9008 4.9192 34.9094 2.94307 35.5625C2.76633 35.621 1.97513 35.8422 1.85656 35.7924C1.83419 35.783 1.73278 35.6904 1.71935 35.6686C1.56947 35.4183 1.73725 34.2371 1.68654 33.8785C1.97066 33.4859 2.50608 33.541 2.80661 33.1362C3.07282 32.7777 3.20854 31.7864 2.62092 31.6455C1.92219 31.4774 0.984079 31.6836 0.2764 31.5952C0.10414 31.5741 0.0519406 31.4761 0.0332978 31.3224C0.115326 30.4365 -0.0725934 29.3873 0.0332978 28.5212C0.0519406 28.3674 0.10414 28.2701 0.2764 28.2483C0.60675 28.2075 1.77155 28.2068 2.10116 28.2483C2.17349 28.2572 2.34277 28.3442 2.34277 28.3967V29.671Z" fill="#111111"/>
<path d="M24.3987 16.5655C26.1989 16.3607 27.333 18.2039 26.2071 19.5205C25.8707 19.9137 24.3144 21.4187 23.9169 21.6684C22.0594 22.8333 19.8805 20.6384 21.3666 18.9346C21.7059 18.5461 23.4278 16.9139 23.8215 16.7329C23.9923 16.6547 24.21 16.5873 24.3987 16.5655Z" fill="#111111"/>
<path d="M35.3525 31.5095C35.2839 31.4911 35.1683 31.3121 35.1549 31.2352C35.1139 30.9903 35.125 30.2861 35.1504 30.0241C35.166 29.8623 35.2011 29.7574 35.3719 29.6901L40.7007 29.6935C40.7276 29.7044 40.8447 29.8146 40.8558 29.8398C40.9006 29.9419 40.9013 31.1686 40.867 31.3115C40.7977 31.6027 40.4024 31.4822 40.1758 31.5169C39.7015 32.7498 40.0758 34.1807 39.9237 35.4781C39.8409 35.5823 39.7507 35.6319 39.615 35.6469C39.2011 35.6932 38.1683 35.687 37.7462 35.6483C37.6209 35.6367 37.5554 35.6285 37.4838 35.5197C37.4979 34.4814 37.3853 33.3587 37.4584 32.3232C37.4718 32.1341 37.5203 31.8973 37.5605 31.7095C37.5687 31.6721 37.6851 31.5101 37.571 31.5101H35.351L35.3525 31.5095Z" fill="#111111"/>
<path d="M25.5941 29.68C25.9923 29.5977 27.4174 29.6467 27.8953 29.6691C31.8834 29.8569 30.6269 32.6159 30.8469 35.332C30.832 35.4906 30.7336 35.6246 30.5598 35.6463C30.2026 35.6906 28.9595 35.6906 28.6016 35.6463C28.4628 35.6294 28.3666 35.5545 28.3577 35.4164C28.3107 34.4441 28.4285 33.4113 28.3622 32.4465C28.3294 31.9682 28.2578 31.5851 27.6687 31.5117C27.2556 31.4606 25.7127 31.5919 25.4942 31.4687C25.4696 31.4545 25.4204 31.4062 25.4092 31.3817C25.3682 31.2939 25.3607 30.0576 25.3838 29.8978C25.401 29.7767 25.4643 29.7059 25.5956 29.6793L25.5941 29.68Z" fill="#111111"/>
<path d="M32.0319 29.68L34.1527 29.6719L34.3884 29.8678L34.3995 35.3755C34.3973 35.4953 34.287 35.5776 34.1885 35.6361L32.0229 35.6436L31.7978 35.4381L31.7769 29.9834C31.7806 29.8385 31.8843 29.7181 32.0319 29.68Z" fill="#111111"/>
<path d="M12.9858 29.6799C13.6278 29.7241 14.4451 29.5908 15.0656 29.669C15.1968 29.6854 15.2475 29.7473 15.3288 29.8392V32.9703L15.1737 33.1165H12.9111C12.777 33.0254 12.7456 32.9349 12.7307 32.7852C12.6435 31.8967 12.8008 30.8856 12.7322 29.9834C12.736 29.8385 12.8381 29.718 12.9858 29.6799Z" fill="#111111"/>
<path d="M31.8668 39.9478L31.7117 42.8306H30.3799C30.2792 42.7693 30.2919 42.2985 30.3329 42.2434L30.9064 42.1985L30.9795 42.0998C30.9944 41.3807 30.925 40.6568 31.0682 39.9485C31.0481 39.9294 30.7438 39.9695 30.6536 39.9417C30.4873 39.8893 30.4933 39.3728 30.6237 39.3007C30.7088 39.2531 32.3732 39.2626 32.6014 39.279C33.1666 39.3184 33.7624 39.5334 33.9892 40.0621C34.1696 40.4833 34.2009 42.1679 34.1338 42.6455C34.1189 42.7509 34.0972 42.8088 33.975 42.8306C33.8527 42.8524 33.3255 42.864 33.2658 42.7482C33.1503 42.0727 33.3501 41.2194 33.233 40.5649C33.1942 40.3458 33.0451 40.1587 32.84 40.058C32.802 40.0396 32.5708 39.9498 32.5559 39.9498H31.8676L31.8668 39.9478Z" fill="#111111"/>
<path d="M7.38173 28.2513H8.89103L8.99844 28.4751C8.79709 29.2732 8.7904 30.1897 8.59127 30.9769C8.53612 31.196 8.43168 31.3641 8.18334 31.3872C7.77693 31.4253 6.66063 31.4356 6.26913 31.3872C6.02378 31.3566 6.05287 31.2069 6.10208 31.0171C6.23333 30.5116 6.8657 29.0351 7.12893 28.5582C7.19903 28.431 7.26242 28.3438 7.38098 28.2527L7.38173 28.2513Z" fill="#111111"/>
<path d="M10.401 28.2513H11.9103L12.0177 28.4751C11.8164 29.2732 11.8096 30.1897 11.6106 30.9769C11.5554 31.196 11.451 31.3641 11.2026 31.3872C10.7962 31.4253 9.67992 31.4356 9.28842 31.3872C9.04304 31.3566 9.07217 31.2069 9.12138 31.0171C9.25259 30.5116 9.88499 29.0351 10.1482 28.5582C10.2183 28.431 10.2817 28.3438 10.4002 28.2527L10.401 28.2513Z" fill="#111111"/>
<path d="M5.77147 42.1718C6.39266 41.9765 7.38371 42.4133 7.70881 41.6757C7.85127 41.3519 7.85652 40.6871 7.68796 40.3694C7.35015 39.7305 6.34642 40.1224 5.77147 39.9373C5.69168 39.8625 5.68945 39.4182 5.75656 39.3372C5.79757 39.2869 5.8535 39.2841 5.9139 39.2766C6.20548 39.2406 6.89303 39.257 7.19802 39.2841C8.0981 39.3638 8.57905 39.8829 8.64842 40.7184C8.7305 41.7071 8.48739 42.6895 7.2808 42.8181C6.99966 42.848 6.12643 42.8739 5.87364 42.8283C5.8274 42.8201 5.78788 42.8072 5.7573 42.7712C5.68945 42.6895 5.69317 42.2459 5.77222 42.1711L5.77147 42.1718Z" fill="#111111"/>
<path d="M44.753 39.9382C44.6739 39.864 44.6702 39.4198 44.7381 39.3381L44.8544 39.281C46.2041 39.3843 48.055 38.7835 48.2041 40.5961C48.2981 41.731 47.709 42.5318 46.5516 42.8414C46.3906 42.8843 46.1646 42.9938 46.1199 42.7665C46.102 42.6754 46.1042 42.3243 46.1415 42.246C46.2138 42.095 46.8715 41.946 47.1146 41.6161C47.3577 41.2861 47.4323 40.3818 47.0669 40.1205C46.6366 39.8137 44.9521 40.126 44.753 39.9382Z" fill="#111111"/>
<path d="M15.7507 39.9477H14.0415C13.8798 39.9477 13.9177 39.3857 13.9751 39.2796H17.0609C17.1996 39.2796 17.2004 39.7674 17.1497 39.8647C17.0714 40.0158 16.7813 39.9069 16.6381 39.9682C16.5598 40.013 16.486 40.3437 16.4741 40.4404C16.3861 41.1329 16.559 41.9794 16.4636 42.6448C16.4554 42.6999 16.4069 42.8306 16.3502 42.8306H15.6844C15.6209 42.7938 15.6232 42.7475 15.6158 42.6863C15.5501 42.1576 15.565 40.886 15.6158 40.343C15.6299 40.1913 15.6717 40.0777 15.7507 39.9477Z" fill="#111111"/>
<path d="M23.46 39.2856C24.5077 39.3353 26.2011 38.957 26.6158 40.1891C26.7559 40.6062 26.7828 42.1874 26.7187 42.644C26.7105 42.7025 26.7083 42.7522 26.6546 42.7923C26.5777 42.8494 25.8865 42.8951 25.838 42.7175C25.7634 42.0548 25.9073 41.2866 25.829 40.6368C25.7022 39.5795 24.1743 40.0687 23.4286 39.9292L23.4062 39.3182L23.46 39.2856Z" fill="#111111"/>
<path d="M3.36365 40.6792C3.30101 40.2076 2.98184 39.9858 2.49937 39.9464C2.19363 39.9212 1.14664 40.0096 0.966184 39.9273C0.834935 39.8674 0.81331 39.3395 0.997507 39.2878C1.8409 39.3354 3.2682 39.0475 3.87073 39.7422C3.97066 39.8579 4.2078 40.2961 4.2078 40.4281V42.7672L4.14143 42.8298H3.43077L3.36439 42.7672C3.30175 42.1106 3.44941 41.318 3.36439 40.6785L3.36365 40.6792Z" fill="#111111"/>
<path d="M20.9901 40.6792C20.9275 40.2076 20.6083 39.9858 20.1258 39.9464C19.8201 39.9212 18.7731 40.0096 18.5926 39.9273C18.4614 39.8674 18.4398 39.3395 18.6239 39.2878C19.4673 39.3354 20.8947 39.0475 21.4972 39.7422C21.5971 39.8579 21.8342 40.2961 21.8342 40.4281V42.7672L21.7679 42.8298H21.0572L20.9908 42.7672C20.9282 42.1106 21.0759 41.318 20.9908 40.6785L20.9901 40.6792Z" fill="#111111"/>
<path d="M40.3764 39.2864C40.495 39.249 41.4689 39.2646 41.6583 39.2782C42.2787 39.3211 42.8581 39.5205 43.0759 40.1165C43.228 40.5328 43.2549 42.1808 43.19 42.6448C43.1818 42.7033 43.1796 42.7529 43.1259 42.7931C43.049 42.8503 42.3578 42.8958 42.3093 42.7183C42.2347 42.0556 42.3786 41.2874 42.3003 40.6376C42.2563 40.2689 41.9857 40.0144 41.6016 39.9586C41.3466 39.9212 40.4734 39.9988 40.3466 39.928C40.2198 39.8573 40.2109 39.3388 40.3764 39.2864Z" fill="#111111"/>
<path d="M11.888 40.6369C11.7545 39.7054 10.7023 40.032 10.043 39.9497C9.72615 39.9102 9.8029 39.3325 9.96552 39.2876C10.1281 39.2428 11.0699 39.2631 11.2877 39.2802C11.7172 39.3128 12.2019 39.4659 12.4651 39.802C12.5404 39.898 12.7314 40.2878 12.7314 40.3864V42.7678L12.665 42.8305H11.9543L11.888 42.7678V40.6369Z" fill="#111111"/>
<path d="M44.7424 44.0001C44.6395 42.9312 44.7283 41.8378 44.6962 40.7608C44.7051 40.5941 44.7924 40.5859 44.94 40.5723C45.1503 40.5533 45.5813 40.509 45.5836 40.7655C45.5023 41.7133 45.7022 42.8461 45.5873 43.7715C45.5754 43.8654 45.5545 43.9368 45.4754 44.0001H44.7424Z" fill="#111111"/>
<path d="M0.997562 40.583C1.13179 40.5457 1.70748 40.5307 1.7567 40.6871C1.70972 41.292 1.85066 42.0595 1.76788 42.6439C1.7567 42.7256 1.74179 42.795 1.64559 42.8215C1.51136 42.859 0.935669 42.8739 0.886456 42.7174C0.933433 42.1125 0.792494 41.3451 0.875267 40.7606C0.886456 40.679 0.901372 40.6096 0.997562 40.583Z" fill="#111111"/>
<path d="M18.623 40.583C18.7573 40.5457 19.333 40.5307 19.3822 40.6871C19.3352 41.292 19.4762 42.0595 19.3934 42.6439C19.3822 42.7256 19.3673 42.795 19.2711 42.8215C19.1368 42.859 18.5612 42.8739 18.512 42.7174C18.5589 42.1125 18.418 41.3451 18.5008 40.7606C18.512 40.679 18.5269 40.6096 18.623 40.583Z" fill="#111111"/>
<path d="M23.4538 40.5742H24.1637L24.2308 40.6368V42.7677L24.1637 42.8303H23.4538L23.3875 42.7677V40.6368L23.4538 40.5742Z" fill="#111111"/>
<path d="M35.6633 39.2796H36.418L36.4843 39.3422V41.3058L36.418 41.3684H35.6633L35.5962 41.3058V39.3422L35.6633 39.2796Z" fill="#111111"/>
<path d="M38.0611 39.2796H38.8157L38.8821 39.3422V41.3058L38.8157 41.3684H38.0611L37.9939 41.3058V39.3422L38.0611 39.2796Z" fill="#111111"/>
</svg>
